<?xml version="1.0" encoding="UTF-8" standalone="no"?>
<!-- Created with Inkscape (http://www.inkscape.org/) -->

<svg
   width="48mm"
   height="48mm"
   viewBox="0 0 48 48"
   version="1.1"
   id="svg5"
   xml:space="preserve"
   xmlns="http://www.w3.org/2000/svg"
   xmlns:svg="http://www.w3.org/2000/svg"><defs
     id="defs2" /><g
     id="layer1"
     transform="translate(-30.199192,-100.96267)"><path
       id="rect354"
       style="fill:#492617;stroke-width:0.756;stroke-linecap:round;stroke-linejoin:round"
       d="m 32.373353,100.96267 h 43.651678 c 1.204485,0 2.174161,0.96968 2.174161,2.17416 v 43.65168 c 0,1.20448 -0.969676,2.17416 -2.174161,2.17416 H 32.373353 c -1.204485,0 -2.174161,-0.96968 -2.174161,-2.17416 v -43.65168 c 0,-1.20448 0.969676,-2.17416 2.174161,-2.17416 z" /><path
       id="rect356"
       style="fill:#df5d4f;stroke-width:0.756;stroke-linecap:round;stroke-linejoin:round"
       d="m 37.486065,103.64594 h 11.152782 c 2.627305,0 4.742428,2.11513 4.742428,4.74243 v 11.15278 c 0,2.62731 -2.115123,4.74243 -4.742428,4.74243 H 37.486065 c -2.627305,0 -4.742428,-2.11512 -4.742428,-4.74243 v -11.15278 c 0,-2.6273 2.115123,-4.74243 4.742428,-4.74243 z" /><path
       id="rect356-3"
       style="fill:#a7b552;stroke-width:0.756;stroke-linecap:round;stroke-linejoin:round"
       d="M 59.997325,103.64594 H 70.83925 c 2.713412,0 4.897856,2.18445 4.897856,4.89786 v 10.84192 c 0,2.71342 -2.184444,4.89786 -4.897856,4.89786 H 59.997325 c -2.713413,0 -4.897857,-2.18444 -4.897857,-4.89786 V 108.5438 c 0,-2.71341 2.184444,-4.89786 4.897857,-4.89786 z" /><path
       id="rect356-6"
       style="fill:#61b5a4;stroke-width:0.756;stroke-linecap:round;stroke-linejoin:round"
       d="m 37.11271,125.69823 h 11.899492 c 2.420467,0 4.369073,1.9486 4.369073,4.36907 v 11.89949 c 0,2.42047 -1.948606,4.36908 -4.369073,4.36908 H 37.11271 c -2.420466,0 -4.369073,-1.94861 -4.369073,-4.36908 V 130.0673 c 0,-2.42047 1.948607,-4.36907 4.369073,-4.36907 z" /><path
       id="rect356-7"
       style="fill:#f3d25c;stroke-width:0.756;stroke-linecap:round;stroke-linejoin:round"
       d="m 59.810811,125.69823 h 11.214953 c 2.610084,0 4.711342,2.10126 4.711342,4.71134 v 11.21495 c 0,2.61009 -2.101258,4.71135 -4.711342,4.71135 H 59.810811 c -2.610084,0 -4.711343,-2.10126 -4.711343,-4.71135 v -11.21495 c 0,-2.61008 2.101259,-4.71134 4.711343,-4.71134 z" /></g></svg>
