<?xml version="1.0" encoding="UTF-8" standalone="no"?>
<!-- Uploaded to: SVG Repo, www.svgrepo.com, Generator: SVG Repo Mixer Tools -->

<svg
   fill="#f3d4d5"
   height="800px"
   width="800px"
   version="1.1"
   id="Layer_1"
   viewBox="0 0 512 512"
   xml:space="preserve"
   sodipodi:docname="cancel_icon.svg"
   inkscape:version="1.2.2 (b0a8486541, 2022-12-01)"
   xmlns:inkscape="http://www.inkscape.org/namespaces/inkscape"
   xmlns:sodipodi="http://sodipodi.sourceforge.net/DTD/sodipodi-0.dtd"
   xmlns="http://www.w3.org/2000/svg"
   xmlns:svg="http://www.w3.org/2000/svg"><defs
   id="defs195" /><sodipodi:namedview
   id="namedview193"
   pagecolor="#ffffff"
   bordercolor="#000000"
   borderopacity="0.25"
   inkscape:showpageshadow="2"
   inkscape:pageopacity="0.0"
   inkscape:pagecheckerboard="0"
   inkscape:deskcolor="#d1d1d1"
   showgrid="false"
   inkscape:zoom="0.50381358"
   inkscape:cx="235.20605"
   inkscape:cy="523.01091"
   inkscape:window-width="1366"
   inkscape:window-height="743"
   inkscape:window-x="0"
   inkscape:window-y="0"
   inkscape:window-maximized="1"
   inkscape:current-layer="Layer_1" />

<path
   style="fill:#f3d4d5;stroke-width:1;fill-opacity:1"
   d="M 234.38222,510.53413 C 148.1304,502.63149 69.694817,450.55151 30.96252,375.46667 9.8294789,334.49902 1.5507208,300.87184 1.5507208,256 1.5507208,173.86662 38.28439,100.24656 103.47465,51.728414 148.39079,18.29937 199.32458,1.5394351 256,1.5394351 c 123.08671,0 224.94556,83.7634739 250.5023,206.0001749 5.3406,25.54382 5.29854,71.56536 -0.089,97.38483 -24.55873,117.6962 -121.14334,200.3771 -240.17328,205.59945 -11.88978,0.52165 -26.22578,0.52627 -31.85778,0.0114 z M 349.75774,352.03329 c 20.83439,-20.83439 25.70893,-26.94895 25.70893,-32.24888 0,-5.3227 -5.27774,-11.86379 -28.35616,-35.14384 l -28.35615,-28.60391 28.35615,-28.65832 c 23.02981,-23.27521 28.35616,-29.88344 28.35616,-35.18051 0,-5.2773 -4.90701,-11.42919 -25.70893,-32.23112 -14.13992,-14.13991 -27.11102,-25.70893 -28.82465,-25.70893 -1.71363,0 -16.76773,13.51828 -33.45356,30.04062 l -30.33784,30.04062 -29.21083,-28.90284 c -20.51993,-20.30356 -30.77994,-28.90285 -34.48471,-28.90285 -6.91589,0 -56.91282,48.83901 -56.91282,55.59473 0,2.91983 10.99328,15.66243 29.58339,34.29088 l 29.58338,29.64441 -29.58338,29.51771 c -18.71866,18.6771 -29.55681,31.20121 -29.51102,34.10166 0.0929,5.88222 1.16074,7.13148 28.71906,33.59728 15.32232,14.71488 24.83568,22.18667 28.2489,22.18667 3.54145,0 14.25585,-9.01346 34.3572,-28.90284 l 29.21083,-28.90285 30.33784,30.04063 c 16.68583,16.52233 31.73993,30.04061 33.45356,30.04061 1.71363,0 14.68473,-11.56901 28.82465,-25.70893 z"
   id="path434" /></svg>
