<?xml version="1.0" encoding="UTF-8" standalone="no"?>
<!-- Uploaded to: SVG Repo, www.svgrepo.com, Generator: SVG Repo Mixer Tools -->

<svg
   fill="#f3d4d5"
   height="800px"
   width="800px"
   version="1.1"
   id="Layer_1"
   viewBox="0 0 512 512"
   xml:space="preserve"
   sodipodi:docname="forbidden_icon.svg"
   inkscape:version="1.4 (e7c3feb100, 2024-10-09)"
   xmlns:inkscape="http://www.inkscape.org/namespaces/inkscape"
   xmlns:sodipodi="http://sodipodi.sourceforge.net/DTD/sodipodi-0.dtd"
   xmlns="http://www.w3.org/2000/svg"
   xmlns:svg="http://www.w3.org/2000/svg"><defs
   id="defs195" /><sodipodi:namedview
   id="namedview193"
   pagecolor="#ffffff"
   bordercolor="#000000"
   borderopacity="0.25"
   inkscape:showpageshadow="2"
   inkscape:pageopacity="0.0"
   inkscape:pagecheckerboard="0"
   inkscape:deskcolor="#d1d1d1"
   showgrid="false"
   inkscape:zoom="0.25190679"
   inkscape:cx="172.68292"
   inkscape:cy="17.86375"
   inkscape:window-width="1366"
   inkscape:window-height="743"
   inkscape:window-x="0"
   inkscape:window-y="0"
   inkscape:window-maximized="1"
   inkscape:current-layer="Layer_1" />

<path
   style="fill:#ffffff;stroke-width:1.54794;fill-opacity:0.86666667"
   d="M 241.04781,509.69558 C 156.85677,504.81044 78.26161,455.58365 36.779716,381.75561 17.247725,346.99324 7.0053829,312.36618 4.5085103,272.65389 -2.410639,162.60643 62.655704,61.241297 166.11327,20.894058 198.86785,8.1201527 234.7891,2.6191015 272.13727,4.6572886 399.44624,11.60492 502.07952,114.22111 509.55252,242.03301 c 2.83118,48.42208 -7.61159,94.97415 -30.74029,137.03498 -33.73897,61.35618 -93.14617,107.14547 -160.41729,123.64485 -19.7937,4.85474 -29.38795,6.10783 -56.90749,7.43254 -3.81412,0.1836 -13.01196,-0.0189 -20.43964,-0.4498 z m 42.88674,-44.10396 c 85.03803,-10.945 155.39464,-73.16088 176.62543,-156.18867 5.16136,-20.18464 6.8578,-36.24081 6.20224,-58.70148 -0.95792,-32.81903 -7.53172,-59.007 -22.12455,-88.13722 -5.4904,-10.95995 -18.60491,-31.66877 -21.66195,-34.20588 -1.45206,-1.20511 -17.77822,14.79373 -148.85669,145.87219 -131.07844,131.07845 -147.07727,147.40461 -145.87218,148.85667 2.53713,3.05706 23.24594,16.17155 34.20589,21.66196 23.06723,11.55556 49.2118,19.263 73.77234,21.74816 10.08309,1.02026 36.66641,0.5156 47.70947,-0.90573 z M 388.14611,92.91246 C 382.6938,88.136897 368.77613,78.816538 358.33893,72.951272 339.77536,62.519322 316.69684,54.386093 292.80848,49.857302 c -9.82296,-1.862233 -14.9878,-2.18487 -35.28376,-2.204018 -26.76207,-0.02523 -37.31484,1.348379 -59.44087,7.737359 C 130.01001,75.047197 74.935692,130.12152 55.279123,198.19537 c -6.388965,22.12604 -7.762606,32.67879 -7.737344,59.44086 0.0192,20.29597 0.34177,25.4608 2.204018,35.28376 6.722329,35.45885 20.587516,66.73165 41.166889,92.8515 l 4.949071,6.28149 L 243.85507,244.1041 391.84838,96.155207 Z"
   id="path1" /></svg>
