<?xml version="1.0" encoding="UTF-8" standalone="no"?>
<!-- Uploaded to: SVG Repo, www.svgrepo.com, Generator: SVG Repo Mixer Tools -->

<svg
   fill="#f3d4d5"
   height="800px"
   width="800px"
   version="1.1"
   id="Layer_1"
   viewBox="0 0 512 512"
   xml:space="preserve"
   sodipodi:docname="lock_icon.svg"
   inkscape:version="1.4 (e7c3feb100, 2024-10-09)"
   xmlns:inkscape="http://www.inkscape.org/namespaces/inkscape"
   xmlns:sodipodi="http://sodipodi.sourceforge.net/DTD/sodipodi-0.dtd"
   xmlns="http://www.w3.org/2000/svg"
   xmlns:svg="http://www.w3.org/2000/svg"><defs
   id="defs4" /><sodipodi:namedview
   id="namedview4"
   pagecolor="#ffffff"
   bordercolor="#000000"
   borderopacity="0.25"
   inkscape:showpageshadow="2"
   inkscape:pageopacity="0.0"
   inkscape:pagecheckerboard="true"
   inkscape:deskcolor="#d1d1d1"
   inkscape:zoom="0.47818096"
   inkscape:cx="305.32374"
   inkscape:cy="323.09944"
   inkscape:window-width="1366"
   inkscape:window-height="743"
   inkscape:window-x="0"
   inkscape:window-y="0"
   inkscape:window-maximized="1"
   inkscape:current-layer="Layer_1" />

<path
   style="fill:#ffffff;stroke-width:1.53153;fill-opacity:1"
   d="m 85.696273,506.29067 c -9.672069,-2.98158 -17.468161,-13.72252 -19.539179,-26.91978 -1.330398,-8.47772 -1.343523,-233.19064 -0.01378,-242.38431 1.694383,-11.71803 7.914021,-21.16216 16.878935,-25.62955 4.011441,-1.99899 6.496279,-2.51638 12.085353,-2.51638 h 7.035652 l 0.51388,-31.61087 c 0.51642,-31.76769 1.09126,-37.83949 5.08232,-53.68232 13.29568,-52.77831 54.84362,-96.348612 106.02635,-111.187235 15.89005,-4.6067638 24.96424,-5.7876841 44.4729,-5.7876841 19.50865,0 28.58285,1.1809203 44.47291,5.7876841 51.18273,14.838623 92.73066,58.408925 106.02635,111.187235 3.99106,15.84283 4.5659,21.91463 5.08232,53.68232 l 0.51388,31.61087 h 7.03565 c 5.58908,0 8.07392,0.51739 12.08536,2.51638 8.96491,4.46739 15.18455,13.91152 16.87893,25.62955 1.32626,9.17229 1.3164,233.89801 -0.0107,242.38431 -2.07315,13.25753 -10.04402,24.03449 -19.95285,26.97709 -7.11717,2.11358 -337.810088,2.05859 -344.673951,-0.0573 z M 282.42895,439.61614 c 1.5204,-1.10976 3.7568,-3.95998 4.96978,-6.33383 2.16749,-4.24186 2.20541,-4.92883 2.20541,-39.94384 v -35.62775 l 3.39596,-4.44755 c 6.79989,-8.90555 9.90035,-23.08968 7.38165,-33.76986 -4.19921,-17.80597 -17.26,-30.02384 -34.79578,-32.55013 -24.15092,-3.47929 -44.0863,9.63215 -49.49107,32.55013 -2.51872,10.68018 0.58175,24.86431 7.38164,33.76986 l 3.39595,4.44755 v 35.37684 c 0,37.30055 0.22809,39.46211 4.69325,44.47859 3.65376,4.1049 6.53394,4.55025 27.82893,4.30305 18.70478,-0.21714 20.48334,-0.39111 23.03428,-2.25306 z m 66.73156,-261.40617 c -0.34492,-27.62477 -0.58954,-31.37942 -2.49268,-38.26022 -9.03024,-32.64878 -34.09098,-57.764404 -66.37542,-66.520754 -11.23036,-3.045961 -32.87782,-3.045961 -44.10819,0 -32.28442,8.75635 -57.34517,33.871974 -66.37542,66.520754 -1.90313,6.8808 -2.14774,10.63545 -2.49266,38.26022 l -0.38244,30.63068 h 91.30461 91.30464 z"
   id="path1" /></svg>
