<?xml version="1.0" encoding="UTF-8" standalone="no"?>
<!-- Uploaded to: SVG Repo, www.svgrepo.com, Generator: SVG Repo Mixer Tools -->

<svg
   fill="#f3d4d5"
   height="800px"
   width="800px"
   version="1.1"
   id="Layer_1"
   viewBox="0 0 512 512"
   xml:space="preserve"
   sodipodi:docname="send_icon.svg"
   inkscape:version="1.4 (e7c3feb100, 2024-10-09)"
   xmlns:inkscape="http://www.inkscape.org/namespaces/inkscape"
   xmlns:sodipodi="http://sodipodi.sourceforge.net/DTD/sodipodi-0.dtd"
   xmlns="http://www.w3.org/2000/svg"
   xmlns:svg="http://www.w3.org/2000/svg"><defs
   id="defs4" /><sodipodi:namedview
   id="namedview4"
   pagecolor="#ffffff"
   bordercolor="#000000"
   borderopacity="0.25"
   inkscape:showpageshadow="2"
   inkscape:pageopacity="0.0"
   inkscape:pagecheckerboard="true"
   inkscape:deskcolor="#d1d1d1"
   inkscape:zoom="0.47818096"
   inkscape:cx="285.45679"
   inkscape:cy="375.3809"
   inkscape:window-width="1366"
   inkscape:window-height="743"
   inkscape:window-x="0"
   inkscape:window-y="0"
   inkscape:window-maximized="1"
   inkscape:current-layer="Layer_1" />

<path
   style="fill:#ffffff;stroke-width:1.59064"
   d="m 148.87588,507.82851 c -9.06339,-1.80714 -11.1855,-3.06215 -13.23835,-7.82905 -1.45633,-3.38172 -1.48853,-4.29563 -0.28632,-8.12707 1.97061,-6.28038 6.72998,-8.70164 13.7201,-6.97994 2.79988,0.68963 10.9822,1.51337 18.18292,1.83053 17.4986,0.77072 20.36567,2.46922 20.36567,12.06494 0,3.46809 -0.61399,5.10348 -2.83478,7.55056 l -2.83479,3.12365 -12.92436,-0.0965 c -7.10841,-0.0531 -16.17595,-0.74478 -20.15009,-1.53717 z m 72.20191,-11.36147 c -5.24622,-3.17907 -7.19292,-12.14498 -3.63673,-16.74969 2.10632,-2.72736 24.2254,-15.11568 27.0108,-15.12805 1.12125,-0.005 3.52149,1.0891 5.33387,2.43129 6.32581,4.68462 6.02471,14.43144 -0.58486,18.93263 -7.22786,4.92225 -20.88492,11.75189 -23.43948,11.72164 -1.50921,-0.0179 -3.61683,-0.56139 -4.6836,-1.20782 z M 81.666199,479.44128 C 60.834649,465.7201 57.765873,461.88707 60.930416,453.54146 c 1.776374,-4.68466 6.446598,-7.60601 10.671066,-6.67502 1.648679,0.36334 6.003054,2.88254 9.67639,5.59821 3.673352,2.71569 10.664823,7.40724 15.536627,10.42568 7.044631,4.36467 9.221011,6.30113 10.632081,9.46003 3.24314,7.26029 -0.66486,14.52793 -8.281013,15.40008 -3.818229,0.43724 -5.259661,-0.24719 -17.499368,-8.30916 z M 258.41159,461.64156 c -2.60418,-2.60015 -5.26637,-10.62494 -23.10925,-69.6596 l -20.16599,-66.72091 -60.4571,-22.20912 C 115.80244,288.77041 93.448254,280.0417 92.054085,278.59847 89.200103,275.6441 88.40272,270.80993 90.05196,266.46053 91.249928,263.30123 110.04055,251.05831 283.75609,140.25375 389.5637,72.764301 478.97021,15.620205 482.43722,13.266879 c 7.34411,-4.9850112 12.01167,-5.6151608 16.20245,-2.187457 1.50698,1.232582 3.06243,3.829118 3.50629,5.853111 0.61885,2.821931 -6.17284,47.134318 -30.28463,197.591567 -17.09531,106.6746 -31.32789,195.07677 -31.62793,196.44927 -0.90912,4.15857 -5.13624,7.6564 -9.25274,7.6564 -2.60035,0 -17.40127,-6.49125 -51.34771,-22.51961 -26.23183,-12.3858 -47.81051,-22.364 -47.95263,-22.17378 -0.14214,0.19019 -13.45012,19.82135 -29.57332,43.62478 -16.1232,23.80342 -30.19789,44.12047 -31.27711,45.14901 -3.0844,2.93961 -8.90558,2.43868 -12.4183,-1.06861 z m 10.52405,-89.22943 c 3.36503,-18.95458 6.47024,-35.44633 6.90045,-36.64832 0.43021,-1.202 29.7538,-46.88534 65.16355,-101.51853 35.40973,-54.6332 65.41537,-101.01614 66.67917,-103.07323 1.26381,-2.05708 -36.98566,39.47741 -84.99882,92.29889 l -87.29667,96.03906 13.20556,43.68249 c 7.26305,24.02538 13.43572,43.68251 13.71702,43.68251 0.28132,0 3.26469,-15.50829 6.62974,-34.46287 z m 29.27702,13.03716 c 7.89741,-11.62302 13.45739,-20.74055 12.95902,-21.25086 -1.5562,-1.59348 -17.18582,-8.62988 -17.7662,-7.99828 -0.55841,0.6077 -9.70165,49.60623 -9.25664,49.60623 0.12759,0 6.4563,-9.16069 14.06382,-20.35709 z M 448.18607,231.61601 C 462.19626,144.34007 473.56127,72.126638 473.44165,71.141741 473.25714,69.622386 303.85311,329.52017 302.50531,333.39039 c -0.32171,0.9238 18.27196,10.24768 58.45422,29.31208 32.4093,15.37655 59.56217,27.87628 60.33974,27.77722 1.10097,-0.14026 7.04912,-35.28564 26.8868,-158.86368 z M 324.84742,188.74849 C 414.26471,90.106955 427.79996,74.775837 422.72926,77.879583 405.17847,88.622297 125.5531,267.45179 125.5531,267.93335 c 0,0.55436 92.60058,35.02579 94.55659,35.19958 0.53433,0.0474 47.66631,-51.42553 104.73773,-114.38444 z M 18.348809,425.39628 C 6.1926556,413.27534 4.4616494,409.55026 7.7395677,402.56555 c 1.9317989,-4.11636 6.6050383,-6.74936 10.5367193,-5.93661 4.187009,0.86553 21.392945,18.55613 22.881473,23.52602 2.152639,7.18721 -2.828071,14.50406 -9.873189,14.50406 -3.220064,0 -4.731655,-1.0824 -12.935762,-9.26274 z"
   id="path4" /></svg>
