<?xml version="1.0" encoding="UTF-8" standalone="no"?>
<!-- Created with Inkscape (http://www.inkscape.org/) -->

<svg
   width="66.489998mm"
   height="66.489998mm"
   viewBox="0 0 66.489998 66.489998"
   version="1.1"
   id="svg5"
   xml:space="preserve"
   sodipodi:docname="fig-back-green.svg"
   inkscape:version="1.2.2 (b0a8486541, 2022-12-01)"
   xmlns:inkscape="http://www.inkscape.org/namespaces/inkscape"
   xmlns:sodipodi="http://sodipodi.sourceforge.net/DTD/sodipodi-0.dtd"
   xmlns="http://www.w3.org/2000/svg"
   xmlns:svg="http://www.w3.org/2000/svg"><sodipodi:namedview
     id="namedview181"
     pagecolor="#ffffff"
     bordercolor="#000000"
     borderopacity="0.25"
     inkscape:showpageshadow="2"
     inkscape:pageopacity="0.0"
     inkscape:pagecheckerboard="0"
     inkscape:deskcolor="#d1d1d1"
     inkscape:document-units="mm"
     showgrid="false"
     inkscape:zoom="0.72441739"
     inkscape:cx="534.91261"
     inkscape:cy="158.74826"
     inkscape:window-width="1366"
     inkscape:window-height="743"
     inkscape:window-x="0"
     inkscape:window-y="0"
     inkscape:window-maximized="1"
     inkscape:current-layer="svg5" /><defs
     id="defs2"><clipPath
       clipPathUnits="userSpaceOnUse"
       id="clipPath4242-2"><path
         d="M 0,595.275 H 420.945 V 0 H 0 Z"
         id="path4240-6" /></clipPath><clipPath
       clipPathUnits="userSpaceOnUse"
       id="clipPath4230-0"><path
         d="m 44.213,536.116 0.077,-101.032 67.183,0.051 -0.075,101.031 z"
         id="path4228-6" /></clipPath><clipPath
       clipPathUnits="userSpaceOnUse"
       id="clipPath4218-3"><path
         d="m 220.885,532.201 0.681,-98.013 65.176,0.452 -0.681,98.012 z"
         id="path4216-6" /></clipPath><clipPath
       clipPathUnits="userSpaceOnUse"
       id="clipPath3346-0"><path
         d="M 0,595.275 H 420.945 V 0 H 0 Z"
         id="path3344-9" /></clipPath><clipPath
       clipPathUnits="userSpaceOnUse"
       id="clipPath3332-2"><path
         d="M 45.644,306.857 H 112.91 V 408.013 H 45.644 Z"
         id="path3330-7" /></clipPath><clipPath
       clipPathUnits="userSpaceOnUse"
       id="clipPath3320-9"><path
         d="m 219.499,304.007 h 68.676 v 103.277 h -68.676 z"
         id="path3318-1" /></clipPath><clipPath
       clipPathUnits="userSpaceOnUse"
       id="clipPath3308-6"><path
         d="m 44.221,177.828 h 68.184 V 280.364 H 44.221 Z"
         id="path3306-2" /></clipPath><clipPath
       clipPathUnits="userSpaceOnUse"
       id="clipPath2656-3"><path
         d="M 0,595.275 H 420.945 V 0 H 0 Z"
         id="path2654-5" /></clipPath><clipPath
       clipPathUnits="userSpaceOnUse"
       id="clipPath2642-7"><path
         d="m 220.962,166.895 0.483,-102.535 68.184,0.322 -0.484,102.535 z"
         id="path2640-5" /></clipPath><clipPath
       clipPathUnits="userSpaceOnUse"
       id="clipPath2630-3"><path
         d="m 47.096,64.623 68.184,-0.204 0.306,102.536 -68.184,0.204 z"
         id="path2628-6" /></clipPath><clipPath
       clipPathUnits="userSpaceOnUse"
       id="clipPath4242-2-3"><path
         d="M 0,595.275 H 420.945 V 0 H 0 Z"
         id="path4240-6-5" /></clipPath><clipPath
       clipPathUnits="userSpaceOnUse"
       id="clipPath4230-0-6"><path
         d="m 44.213,536.116 0.077,-101.032 67.183,0.051 -0.075,101.031 z"
         id="path4228-6-2" /></clipPath><clipPath
       clipPathUnits="userSpaceOnUse"
       id="clipPath4218-3-9"><path
         d="m 220.885,532.201 0.681,-98.013 65.176,0.452 -0.681,98.012 z"
         id="path4216-6-1" /></clipPath><clipPath
       clipPathUnits="userSpaceOnUse"
       id="clipPath3346-0-2"><path
         d="M 0,595.275 H 420.945 V 0 H 0 Z"
         id="path3344-9-7" /></clipPath><clipPath
       clipPathUnits="userSpaceOnUse"
       id="clipPath3332-2-0"><path
         d="M 45.644,306.857 H 112.91 V 408.013 H 45.644 Z"
         id="path3330-7-9" /></clipPath><clipPath
       clipPathUnits="userSpaceOnUse"
       id="clipPath3320-9-3"><path
         d="m 219.499,304.007 h 68.676 v 103.277 h -68.676 z"
         id="path3318-1-6" /></clipPath><clipPath
       clipPathUnits="userSpaceOnUse"
       id="clipPath3308-6-0"><path
         d="m 44.221,177.828 h 68.184 V 280.364 H 44.221 Z"
         id="path3306-2-6" /></clipPath><clipPath
       clipPathUnits="userSpaceOnUse"
       id="clipPath2656-3-2"><path
         d="M 0,595.275 H 420.945 V 0 H 0 Z"
         id="path2654-5-6" /></clipPath><clipPath
       clipPathUnits="userSpaceOnUse"
       id="clipPath2642-7-1"><path
         d="m 220.962,166.895 0.483,-102.535 68.184,0.322 -0.484,102.535 z"
         id="path2640-5-8" /></clipPath><clipPath
       clipPathUnits="userSpaceOnUse"
       id="clipPath2630-3-7"><path
         d="m 47.096,64.623 68.184,-0.204 0.306,102.536 -68.184,0.204 z"
         id="path2628-6-9" /></clipPath></defs><path
     id="path3029"
     style="fill:none;fill-opacity:1;stroke-width:1.656;stroke-linecap:round"
     d="m 70.498278,-6.3858689 h 61.376672 c 1.41639,0 2.55666,0.75949 2.55666,1.702892 V 58.40124 c 0,0.943399 -1.14027,1.702891 -2.55666,1.702891 H 70.498278 c -1.41639,0 -2.55667,-0.759492 -2.55667,-1.702891 V -4.6829769 c 0,-0.943402 1.14028,-1.702892 2.55667,-1.702892 z" /><g
     id="g6777" /><g
     id="g4938"
     transform="translate(-86.074616,39.630861)"><path
       id="rect35673-9-49-2"
       style="fill:#3f8141;fill-opacity:1;stroke-width:1.656;stroke-linecap:round"
       d="m 88.63079,-39.630866 c -1.41639,0 -2.55643,0.759337 -2.55643,1.702738 v 4.339787 h 6.04252 v -6.042525 z m 3.48609,6.042525 v 6.045109 h 6.04511 v -6.045109 z m 6.04511,0 h 6.0446 v -6.042525 h -6.0446 z m 6.0446,0 v 6.045109 h 6.04511 v -6.045109 z m 6.04511,0 h 6.0451 v -6.042525 h -6.0451 z m 6.0451,0 v 6.045109 h 6.04511 v -6.045109 z m 6.04511,0 h 6.04511 v -6.042525 h -6.04511 z m 6.04511,0 v 6.045109 h 6.04459 v -6.045109 z m 6.04459,0 h 6.04511 v -6.042525 h -6.04511 z m 6.04511,0 v 6.045109 h 6.04511 v -6.045109 z m 6.04511,0 h 6.04253 v -4.339787 c 0,-0.943401 -1.14056,-1.702738 -2.55695,-1.702738 h -3.48558 z m 0,6.045109 v 6.044592 h 6.04253 v -6.044592 z m 0,6.044592 h -6.04511 v 6.045109 h 6.04511 z m 0,6.045109 v 6.0451095 h 6.04253 v -6.0451095 z m 0,6.0451095 h -6.04511 v 6.045109 h 6.04511 z m 0,6.045109 v 6.045109 h 6.04253 v -6.045109 z m 0,6.045109 h -6.04511 v 6.044592 h 6.04511 z m 0,6.044592 v 6.0451095 h 6.04253 V 8.7263885 Z m 0,6.0451095 h -6.04511 v 6.045109 h 6.04511 z m 0,6.045109 v 6.042525 h 3.48558 c 1.41639,0 2.55695,-0.75934 2.55695,-1.702738 v -4.339787 z m -6.04511,0 h -6.04511 v 6.042525 h 6.04511 z m -6.04511,0 v -6.045109 h -6.04459 v 6.045109 z m -6.04459,0 h -6.04511 v 6.042525 h 6.04511 z m -6.04511,0 v -6.045109 h -6.04511 v 6.045109 z m -6.04511,0 h -6.0451 v 6.042525 h 6.0451 z m -6.0451,0 v -6.045109 h -6.04511 v 6.045109 z m -6.04511,0 h -6.0446 v 6.042525 h 6.0446 z m -6.0446,0 v -6.045109 h -6.04511 v 6.045109 z m -6.04511,0 h -6.04252 v 4.339787 c 0,0.943398 1.14004,1.702738 2.55643,1.702738 h 3.48609 z m 0,-6.045109 V 8.7263885 h -6.04252 v 6.0451095 z m 0,-6.0451095 h 6.04511 v -6.044592 h -6.04511 z m 0,-6.044592 v -6.045109 h -6.04252 v 6.045109 z m 0,-6.045109 h 6.04511 v -6.045109 h -6.04511 z m 0,-6.045109 v -6.0451095 h -6.04252 v 6.0451095 z m 0,-6.0451095 h 6.04511 v -6.045109 h -6.04511 z m 0,-6.045109 v -6.044592 h -6.04252 v 6.044592 z m 6.04511,0 h 6.0446 v -6.044592 h -6.0446 z m 6.0446,0 v 6.045109 h 6.04511 v -6.045109 z m 6.04511,0 h 6.0451 v -6.044592 h -6.0451 z m 6.0451,0 v 6.045109 h 6.04511 v -6.045109 z m 6.04511,0 h 6.04511 v -6.044592 h -6.04511 z m 6.04511,0 v 6.045109 h 6.04459 v -6.045109 z m 6.04459,0 h 6.04511 v -6.044592 h -6.04511 z m 0,6.045109 v 6.0451095 h 6.04511 v -6.0451095 z m 0,6.0451095 h -6.04459 v 6.045109 h 6.04459 z m 0,6.045109 v 6.045109 h 6.04511 v -6.045109 z m 0,6.045109 h -6.04459 v 6.044592 h 6.04459 z m 0,6.044592 v 6.0451095 h 6.04511 V 8.7263885 Z m -6.04459,0 h -6.04511 v 6.0451095 h 6.04511 z m -6.04511,0 v -6.044592 h -6.04511 v 6.044592 z m -6.04511,0 h -6.0451 v 6.0451095 h 6.0451 z m -6.0451,0 v -6.044592 h -6.04511 v 6.044592 z m -6.04511,0 h -6.0446 v 6.0451095 h 6.0446 z m 0,-6.044592 v -6.045109 h -6.0446 v 6.045109 z m 0,-6.045109 h 6.04511 v -6.045109 h -6.04511 z m 0,-6.045109 v -6.0451095 h -6.0446 v 6.0451095 z m 6.04511,0 h 6.0451 v -6.0451095 h -6.0451 z m 6.0451,0 v 6.045109 h 6.04511 v -6.045109 z m 6.04511,0 h 6.04511 v -6.0451095 h -6.04511 z m 0,6.045109 v 6.045109 h 6.04511 v -6.045109 z m -6.04511,0 h -6.0451 v 6.045109 h 6.0451 z" /><path
       id="rect3033-9-18-9-8-2"
       d="m 92.11689,-39.633442 v 6.0451 H 98.162 v -6.045099 z m 6.04511,6.0451 v 6.04511 h 6.0451 v -6.04511 z m 6.0451,0 h 6.04511 v -6.045099 h -6.04511 z m 6.04511,0 v 6.04511 h 6.04511 v -6.04511 z m 6.04511,0 h 6.04459 v -6.045099 h -6.04459 z m 6.04459,0 v 6.04511 h 6.04511 v -6.04511 z m 6.04511,0 h 6.04511 v -6.045099 h -6.04511 z m 6.04511,0 v 6.04511 h 6.04511 v -6.04511 z m 6.04511,0 h 6.04459 v -6.045099 h -6.04459 z m 6.04459,0 v 6.04511 h 6.04511 v -6.04511 z m 0,6.04511 h -6.04459 v 6.0446 h 6.04459 z m 0,6.0446 v 6.0451 h 6.04511 v -6.0451 z m 0,6.0451 h -6.04459 v 6.0451095 h 6.04459 z m 0,6.0451095 v 6.04511 h 6.04511 v -6.04511 z m 0,6.04511 h -6.04459 v 6.04511 h 6.04459 z m 0,6.04511 v 6.04459 h 6.04511 v -6.04459 z m 0,6.04459 h -6.04459 v 6.0451105 h 6.04459 z m 0,6.0451105 v 6.04511 h 6.04511 v -6.04511 z m 0,6.04511 h -6.04459 v 6.04511 h 6.04459 z m -6.04459,0 v -6.04511 h -6.04511 v 6.04511 z m -6.04511,0 h -6.04511 v 6.04511 h 6.04511 z m -6.04511,0 v -6.04511 h -6.04511 v 6.04511 z m -6.04511,0 h -6.04459 v 6.04511 h 6.04459 z m -6.04459,0 v -6.04511 h -6.04511 v 6.04511 z m -6.04511,0 h -6.04511 v 6.04511 h 6.04511 z m -6.04511,0 v -6.04511 H 98.162 v 6.04511 z m -6.0451,0 h -6.04511 v 6.04511 H 98.162 Z m -6.04511,0 v -6.04511 h -6.0446 v 6.04511 z m 0,-6.04511 H 98.162 V 8.7263875 h -6.04511 z m 0,-6.0451105 v -6.04459 h -6.0446 v 6.04459 z m 0,-6.04459 H 98.162 v -6.04511 h -6.04511 z m 0,-6.04511 v -6.04511 h -6.0446 v 6.04511 z m 0,-6.04511 H 98.162 v -6.0451095 h -6.04511 z m 0,-6.0451095 v -6.0451 h -6.0446 v 6.0451 z m 0,-6.0451 H 98.162 v -6.0446 h -6.04511 z m 0,-6.0446 v -6.04511 h -6.0446 v 6.04511 z m 6.04511,6.0446 v 6.0451 h 6.0451 v -6.0451 z m 6.0451,0 h 6.04511 v -6.0446 h -6.04511 z m 6.04511,0 v 6.0451 h 6.04511 v -6.0451 z m 6.04511,0 h 6.04459 v -6.0446 h -6.04459 z m 6.04459,0 v 6.0451 h 6.04511 v -6.0451 z m 6.04511,0 h 6.04511 v -6.0446 h -6.04511 z m 6.04511,0 v 6.0451 h 6.04511 v -6.0451 z m 0,6.0451 h -6.04511 v 6.0451095 h 6.04511 z m 0,6.0451095 v 6.04511 h 6.04511 v -6.04511 z m 0,6.04511 h -6.04511 v 6.04511 h 6.04511 z m 0,6.04511 v 6.04459 h 6.04511 v -6.04459 z m 0,6.04459 h -6.04511 v 6.0451105 h 6.04511 z m -6.04511,0 v -6.04459 h -6.04511 v 6.04459 z m -6.04511,0 h -6.04459 v 6.0451105 h 6.04459 z m -6.04459,0 v -6.04459 h -6.04511 v 6.04459 z m -6.04511,0 h -6.04511 v 6.0451105 h 6.04511 z m -6.04511,0 v -6.04459 H 98.162 v 6.04459 z m 0,-6.04459 h 6.04511 v -6.04511 h -6.04511 z m 0,-6.04511 v -6.04511 H 98.162 v 6.04511 z m 0,-6.04511 h 6.04511 v -6.0451095 h -6.04511 z m 6.04511,0 v 6.04511 h 6.04511 v -6.04511 z m 6.04511,0 h 6.04459 v -6.0451095 h -6.04459 z m 6.04459,0 v 6.04511 h 6.04511 v -6.04511 z m 0,6.04511 h -6.04459 v 6.04511 h 6.04459 z"
       style="fill:#336635;fill-opacity:1" /></g></svg>
