<?xml version="1.0" encoding="UTF-8" standalone="no"?>
<!-- Created with Inkscape (http://www.inkscape.org/) -->

<svg
   width="66.489998mm"
   height="66.489998mm"
   viewBox="0 0 66.489998 66.489998"
   version="1.1"
   id="svg5"
   xml:space="preserve"
   sodipodi:docname="fig15.svg"
   inkscape:version="1.2.2 (b0a8486541, 2022-12-01)"
   xmlns:inkscape="http://www.inkscape.org/namespaces/inkscape"
   xmlns:sodipodi="http://sodipodi.sourceforge.net/DTD/sodipodi-0.dtd"
   xmlns="http://www.w3.org/2000/svg"
   xmlns:svg="http://www.w3.org/2000/svg"><sodipodi:namedview
     id="namedview181"
     pagecolor="#ffffff"
     bordercolor="#000000"
     borderopacity="0.25"
     inkscape:showpageshadow="2"
     inkscape:pageopacity="0.0"
     inkscape:pagecheckerboard="0"
     inkscape:deskcolor="#d1d1d1"
     inkscape:document-units="mm"
     showgrid="false"
     inkscape:zoom="1.0244809"
     inkscape:cx="215.719"
     inkscape:cy="179.60315"
     inkscape:window-width="1366"
     inkscape:window-height="743"
     inkscape:window-x="0"
     inkscape:window-y="0"
     inkscape:window-maximized="1"
     inkscape:current-layer="svg5" /><defs
     id="defs2"><clipPath
       clipPathUnits="userSpaceOnUse"
       id="clipPath4242-2"><path
         d="M 0,595.275 H 420.945 V 0 H 0 Z"
         id="path4240-6" /></clipPath><clipPath
       clipPathUnits="userSpaceOnUse"
       id="clipPath4230-0"><path
         d="m 44.213,536.116 0.077,-101.032 67.183,0.051 -0.075,101.031 z"
         id="path4228-6" /></clipPath><clipPath
       clipPathUnits="userSpaceOnUse"
       id="clipPath4218-3"><path
         d="m 220.885,532.201 0.681,-98.013 65.176,0.452 -0.681,98.012 z"
         id="path4216-6" /></clipPath><clipPath
       clipPathUnits="userSpaceOnUse"
       id="clipPath3346-0"><path
         d="M 0,595.275 H 420.945 V 0 H 0 Z"
         id="path3344-9" /></clipPath><clipPath
       clipPathUnits="userSpaceOnUse"
       id="clipPath3332-2"><path
         d="M 45.644,306.857 H 112.91 V 408.013 H 45.644 Z"
         id="path3330-7" /></clipPath><clipPath
       clipPathUnits="userSpaceOnUse"
       id="clipPath3320-9"><path
         d="m 219.499,304.007 h 68.676 v 103.277 h -68.676 z"
         id="path3318-1" /></clipPath><clipPath
       clipPathUnits="userSpaceOnUse"
       id="clipPath3308-6"><path
         d="m 44.221,177.828 h 68.184 V 280.364 H 44.221 Z"
         id="path3306-2" /></clipPath><clipPath
       clipPathUnits="userSpaceOnUse"
       id="clipPath2656-3"><path
         d="M 0,595.275 H 420.945 V 0 H 0 Z"
         id="path2654-5" /></clipPath><clipPath
       clipPathUnits="userSpaceOnUse"
       id="clipPath2642-7"><path
         d="m 220.962,166.895 0.483,-102.535 68.184,0.322 -0.484,102.535 z"
         id="path2640-5" /></clipPath><clipPath
       clipPathUnits="userSpaceOnUse"
       id="clipPath2630-3"><path
         d="m 47.096,64.623 68.184,-0.204 0.306,102.536 -68.184,0.204 z"
         id="path2628-6" /></clipPath><clipPath
       clipPathUnits="userSpaceOnUse"
       id="clipPath4242-2-3"><path
         d="M 0,595.275 H 420.945 V 0 H 0 Z"
         id="path4240-6-5" /></clipPath><clipPath
       clipPathUnits="userSpaceOnUse"
       id="clipPath4230-0-6"><path
         d="m 44.213,536.116 0.077,-101.032 67.183,0.051 -0.075,101.031 z"
         id="path4228-6-2" /></clipPath><clipPath
       clipPathUnits="userSpaceOnUse"
       id="clipPath4218-3-9"><path
         d="m 220.885,532.201 0.681,-98.013 65.176,0.452 -0.681,98.012 z"
         id="path4216-6-1" /></clipPath><clipPath
       clipPathUnits="userSpaceOnUse"
       id="clipPath3346-0-2"><path
         d="M 0,595.275 H 420.945 V 0 H 0 Z"
         id="path3344-9-7" /></clipPath><clipPath
       clipPathUnits="userSpaceOnUse"
       id="clipPath3332-2-0"><path
         d="M 45.644,306.857 H 112.91 V 408.013 H 45.644 Z"
         id="path3330-7-9" /></clipPath><clipPath
       clipPathUnits="userSpaceOnUse"
       id="clipPath3320-9-3"><path
         d="m 219.499,304.007 h 68.676 v 103.277 h -68.676 z"
         id="path3318-1-6" /></clipPath><clipPath
       clipPathUnits="userSpaceOnUse"
       id="clipPath3308-6-0"><path
         d="m 44.221,177.828 h 68.184 V 280.364 H 44.221 Z"
         id="path3306-2-6" /></clipPath><clipPath
       clipPathUnits="userSpaceOnUse"
       id="clipPath2656-3-2"><path
         d="M 0,595.275 H 420.945 V 0 H 0 Z"
         id="path2654-5-6" /></clipPath><clipPath
       clipPathUnits="userSpaceOnUse"
       id="clipPath2642-7-1"><path
         d="m 220.962,166.895 0.483,-102.535 68.184,0.322 -0.484,102.535 z"
         id="path2640-5-8" /></clipPath><clipPath
       clipPathUnits="userSpaceOnUse"
       id="clipPath2630-3-7"><path
         d="m 47.096,64.623 68.184,-0.204 0.306,102.536 -68.184,0.204 z"
         id="path2628-6-9" /></clipPath></defs><path
     id="rect35673-9-49"
     style="fill:#18110e;fill-opacity:1;stroke-width:1.656;stroke-linecap:round"
     d="M 2.55667,0 H 63.93334 C 65.34973,0 66.49,0.75949 66.49,1.702892 V 64.787109 C 66.49,65.730508 65.34973,66.49 63.93334,66.49 H 2.55667 C 1.14028,66.49 0,65.730508 0,64.787109 V 1.702892 C 0,0.75949 1.14028,0 2.55667,0 Z" /><g
     id="g5362"
     transform="translate(-212.3802,20.709068)"><path
       id="rect35673-9-49-3"
       style="fill:#ffffff;stroke-width:1.656;stroke-linecap:round"
       d="m 222.57608,-16.337504 a 4.9770002,4.9770002 0 0 1 0.0971,0.944645 4.9770002,4.9770002 0 0 1 -4.97696,4.976957 4.9770002,4.9770002 0 0 1 -0.94413,-0.09715 v 46.300016 c 1.44024,-0.507783 3.0911,-0.406273 4.38733,0.539502 1.36632,0.898467 2.22379,2.503034 2.21175,4.138249 0.0102,0.556652 -0.087,1.104609 -0.26975,1.622123 h 45.77447 a 4.9770002,4.9770002 0 0 1 -0.27854,-1.622123 4.9770002,4.9770002 0 0 1 4.97696,-4.976958 4.9770002,4.9770002 0 0 1 1.62213,0.278536 V -10.01696 a 4.9770002,4.9770002 0 0 1 -1.62213,0.2790531 4.9770002,4.9770002 0 0 1 -4.97696,-4.9774741 4.9770002,4.9770002 0 0 1 0.27854,-1.622123 z" /><path
       style="color:#000000;fill:#00a2b1;stroke-linecap:round;-inkscape-stroke:none"
       d="m 224.26367,-14.714844 -0.0488,0.320313 c -0.43773,2.849523 -2.67004,5.0834991 -5.51953,5.5214841 l -0.32226,0.048828 V 33.871094 l 0.35742,0.02148 c 3.35455,0.189683 6.02711,2.860295 6.2168,6.214844 l 0.0195,0.357422 h 41.99414 l 0.0195,-0.357422 c 0.18968,-3.354549 2.86225,-6.025161 6.2168,-6.214844 l 0.35742,-0.02148 V -8.1230469 l -0.35742,-0.019531 c -3.35455,-0.1896825 -6.02712,-2.8622491 -6.2168,-6.2167971 l -0.0195,-0.355469 z m 0.5957,0.75586 h 41.45508 c 0.37033,3.429616 3.05452,6.1148445 6.48438,6.4843746 V 33.224609 c -3.42983,0.369558 -6.11406,3.05478 -6.48438,6.484375 h -40.70117 c -0.37025,-3.428951 -3.05351,-6.114003 -6.48242,-6.484375 V -8.2304688 c 2.89722,-0.5852082 5.14421,-2.8310062 5.72851,-5.7285152 z"
       id="rect35673-9-49-3-2" /><path
       id="path5275-3"
       style="fill:#ffffff;stroke-width:0.755999;stroke-linecap:round;stroke-linejoin:round"
       d="m 220.37402,40.464958 a 2,2 0 0 1 -2,2 2,2 0 0 1 -2,-2 2,2 0 0 1 2,-2 2,2 0 0 1 2,2 z m 55.18006,-1.3e-4 a 2,2 0 0 1 -2,2 2,2 0 0 1 -2,-2 2,2 0 0 1 2,-2 2,2 0 0 1 2,2 z m 0,-55.179937 a 2,2 0 0 1 -2,2 2,2 0 0 1 -2,-2 2,2 0 0 1 2,-2 2,2 0 0 1 2,2 z m -55.85775,-0.677985 a 2,2 0 0 1 -2,2 2,2 0 0 1 -2,-2 2,2 0 0 1 2,-2 2,2 0 0 1 2,2 z" /></g><g
     id="g7323"
     transform="translate(0,7.7246352)"><rect
       style="fill:#00a2b1;fill-opacity:1;stroke:none;stroke-width:0.755999;stroke-linecap:round;stroke-linejoin:round;stroke-dasharray:none;stroke-opacity:1"
       id="rect5468-7"
       width="13.896549"
       height="13.896549"
       x="25.901819"
       y="26.296724"
       ry="2.3862755" /><rect
       style="fill:#00a2b1;fill-opacity:1;stroke:none;stroke-width:0.755999;stroke-linecap:round;stroke-linejoin:round;stroke-dasharray:none;stroke-opacity:1"
       id="rect5468-6-4"
       width="13.896549"
       height="13.896549"
       x="41.614368"
       y="26.296724"
       ry="2.3862755" /><rect
       style="fill:#00a2b1;fill-opacity:1;stroke:none;stroke-width:0.755999;stroke-linecap:round;stroke-linejoin:round;stroke-dasharray:none;stroke-opacity:1"
       id="rect5468-1-5"
       width="13.896549"
       height="13.896549"
       x="10.715821"
       y="26.296724"
       ry="2.3862755" /><rect
       style="fill:#00a2b1;fill-opacity:1;stroke:none;stroke-width:0.755999;stroke-linecap:round;stroke-linejoin:round;stroke-dasharray:none;stroke-opacity:1"
       id="rect5468-2-2"
       width="13.896549"
       height="13.896549"
       x="25.901819"
       y="10.847459"
       ry="2.3862755" /><rect
       style="fill:#00a2b1;fill-opacity:1;stroke:none;stroke-width:0.755999;stroke-linecap:round;stroke-linejoin:round;stroke-dasharray:none;stroke-opacity:1"
       id="rect5468-2-7-4"
       width="13.896549"
       height="13.896549"
       x="41.614368"
       y="10.847456"
       ry="2.3862755" /></g></svg>
