<?xml version="1.0" encoding="UTF-8" standalone="no"?>
<!-- Created with Inkscape (http://www.inkscape.org/) -->

<svg
   width="66.494652mm"
   height="99.825333mm"
   viewBox="0 0 66.494652 99.825333"
   version="1.1"
   id="svg5"
   xml:space="preserve"
   sodipodi:docname="mov-back.svg"
   inkscape:version="1.2.2 (b0a8486541, 2022-12-01)"
   xmlns:inkscape="http://www.inkscape.org/namespaces/inkscape"
   xmlns:sodipodi="http://sodipodi.sourceforge.net/DTD/sodipodi-0.dtd"
   xmlns:xlink="http://www.w3.org/1999/xlink"
   xmlns="http://www.w3.org/2000/svg"
   xmlns:svg="http://www.w3.org/2000/svg"><sodipodi:namedview
     id="namedview181"
     pagecolor="#ffffff"
     bordercolor="#000000"
     borderopacity="0.25"
     inkscape:showpageshadow="2"
     inkscape:pageopacity="0.0"
     inkscape:pagecheckerboard="0"
     inkscape:deskcolor="#d1d1d1"
     inkscape:document-units="mm"
     showgrid="false"
     inkscape:zoom="0.72441739"
     inkscape:cx="48.314688"
     inkscape:cy="187.73707"
     inkscape:window-width="1366"
     inkscape:window-height="743"
     inkscape:window-x="0"
     inkscape:window-y="0"
     inkscape:window-maximized="1"
     inkscape:current-layer="svg5" /><defs
     id="defs2"><linearGradient
       inkscape:collect="always"
       id="linearGradient5309"><stop
         style="stop-color:#2e1700;stop-opacity:0;"
         offset="0"
         id="stop5305" /><stop
         style="stop-color:#381e02;stop-opacity:0.29803922;"
         offset="1"
         id="stop17053" /><stop
         style="stop-color:#57330b;stop-opacity:0;"
         offset="1"
         id="stop5307" /></linearGradient><clipPath
       clipPathUnits="userSpaceOnUse"
       id="clipPath4242-2"><path
         d="M 0,595.275 H 420.945 V 0 H 0 Z"
         id="path4240-6" /></clipPath><clipPath
       clipPathUnits="userSpaceOnUse"
       id="clipPath4230-0"><path
         d="m 44.213,536.116 0.077,-101.032 67.183,0.051 -0.075,101.031 z"
         id="path4228-6" /></clipPath><clipPath
       clipPathUnits="userSpaceOnUse"
       id="clipPath4218-3"><path
         d="m 220.885,532.201 0.681,-98.013 65.176,0.452 -0.681,98.012 z"
         id="path4216-6" /></clipPath><clipPath
       clipPathUnits="userSpaceOnUse"
       id="clipPath3346-0"><path
         d="M 0,595.275 H 420.945 V 0 H 0 Z"
         id="path3344-9" /></clipPath><clipPath
       clipPathUnits="userSpaceOnUse"
       id="clipPath3332-2"><path
         d="M 45.644,306.857 H 112.91 V 408.013 H 45.644 Z"
         id="path3330-7" /></clipPath><clipPath
       clipPathUnits="userSpaceOnUse"
       id="clipPath3320-9"><path
         d="m 219.499,304.007 h 68.676 v 103.277 h -68.676 z"
         id="path3318-1" /></clipPath><clipPath
       clipPathUnits="userSpaceOnUse"
       id="clipPath3308-6"><path
         d="m 44.221,177.828 h 68.184 V 280.364 H 44.221 Z"
         id="path3306-2" /></clipPath><clipPath
       clipPathUnits="userSpaceOnUse"
       id="clipPath2656-3"><path
         d="M 0,595.275 H 420.945 V 0 H 0 Z"
         id="path2654-5" /></clipPath><clipPath
       clipPathUnits="userSpaceOnUse"
       id="clipPath2642-7"><path
         d="m 220.962,166.895 0.483,-102.535 68.184,0.322 -0.484,102.535 z"
         id="path2640-5" /></clipPath><clipPath
       clipPathUnits="userSpaceOnUse"
       id="clipPath2630-3"><path
         d="m 47.096,64.623 68.184,-0.204 0.306,102.536 -68.184,0.204 z"
         id="path2628-6" /></clipPath><clipPath
       clipPathUnits="userSpaceOnUse"
       id="clipPath4242-2-3"><path
         d="M 0,595.275 H 420.945 V 0 H 0 Z"
         id="path4240-6-5" /></clipPath><clipPath
       clipPathUnits="userSpaceOnUse"
       id="clipPath4230-0-6"><path
         d="m 44.213,536.116 0.077,-101.032 67.183,0.051 -0.075,101.031 z"
         id="path4228-6-2" /></clipPath><clipPath
       clipPathUnits="userSpaceOnUse"
       id="clipPath4218-3-9"><path
         d="m 220.885,532.201 0.681,-98.013 65.176,0.452 -0.681,98.012 z"
         id="path4216-6-1" /></clipPath><clipPath
       clipPathUnits="userSpaceOnUse"
       id="clipPath3346-0-2"><path
         d="M 0,595.275 H 420.945 V 0 H 0 Z"
         id="path3344-9-7" /></clipPath><clipPath
       clipPathUnits="userSpaceOnUse"
       id="clipPath3332-2-0"><path
         d="M 45.644,306.857 H 112.91 V 408.013 H 45.644 Z"
         id="path3330-7-9" /></clipPath><clipPath
       clipPathUnits="userSpaceOnUse"
       id="clipPath3320-9-3"><path
         d="m 219.499,304.007 h 68.676 v 103.277 h -68.676 z"
         id="path3318-1-6" /></clipPath><clipPath
       clipPathUnits="userSpaceOnUse"
       id="clipPath3308-6-0"><path
         d="m 44.221,177.828 h 68.184 V 280.364 H 44.221 Z"
         id="path3306-2-6" /></clipPath><clipPath
       clipPathUnits="userSpaceOnUse"
       id="clipPath2656-3-2"><path
         d="M 0,595.275 H 420.945 V 0 H 0 Z"
         id="path2654-5-6" /></clipPath><clipPath
       clipPathUnits="userSpaceOnUse"
       id="clipPath2642-7-1"><path
         d="m 220.962,166.895 0.483,-102.535 68.184,0.322 -0.484,102.535 z"
         id="path2640-5-8" /></clipPath><clipPath
       clipPathUnits="userSpaceOnUse"
       id="clipPath2630-3-7"><path
         d="m 47.096,64.623 68.184,-0.204 0.306,102.536 -68.184,0.204 z"
         id="path2628-6-9" /></clipPath><clipPath
       clipPathUnits="userSpaceOnUse"
       id="clipPath4242-2-8"><path
         d="M 0,595.275 H 420.945 V 0 H 0 Z"
         id="path4240-6-7" /></clipPath><clipPath
       clipPathUnits="userSpaceOnUse"
       id="clipPath4230-0-1"><path
         d="m 44.213,536.116 0.077,-101.032 67.183,0.051 -0.075,101.031 z"
         id="path4228-6-7" /></clipPath><clipPath
       clipPathUnits="userSpaceOnUse"
       id="clipPath4218-3-2"><path
         d="m 220.885,532.201 0.681,-98.013 65.176,0.452 -0.681,98.012 z"
         id="path4216-6-7" /></clipPath><clipPath
       clipPathUnits="userSpaceOnUse"
       id="clipPath3346-0-22"><path
         d="M 0,595.275 H 420.945 V 0 H 0 Z"
         id="path3344-9-6" /></clipPath><clipPath
       clipPathUnits="userSpaceOnUse"
       id="clipPath3332-2-1"><path
         d="M 45.644,306.857 H 112.91 V 408.013 H 45.644 Z"
         id="path3330-7-0" /></clipPath><clipPath
       clipPathUnits="userSpaceOnUse"
       id="clipPath3320-9-6"><path
         d="m 219.499,304.007 h 68.676 v 103.277 h -68.676 z"
         id="path3318-1-1" /></clipPath><clipPath
       clipPathUnits="userSpaceOnUse"
       id="clipPath3308-6-5"><path
         d="m 44.221,177.828 h 68.184 V 280.364 H 44.221 Z"
         id="path3306-2-9" /></clipPath><clipPath
       clipPathUnits="userSpaceOnUse"
       id="clipPath2656-3-4"><path
         d="M 0,595.275 H 420.945 V 0 H 0 Z"
         id="path2654-5-9" /></clipPath><clipPath
       clipPathUnits="userSpaceOnUse"
       id="clipPath2642-7-0"><path
         d="m 220.962,166.895 0.483,-102.535 68.184,0.322 -0.484,102.535 z"
         id="path2640-5-9" /></clipPath><clipPath
       clipPathUnits="userSpaceOnUse"
       id="clipPath2630-3-1"><path
         d="m 47.096,64.623 68.184,-0.204 0.306,102.536 -68.184,0.204 z"
         id="path2628-6-7" /></clipPath><radialGradient
       inkscape:collect="always"
       xlink:href="#linearGradient5309"
       id="radialGradient5311"
       cx="122.50262"
       cy="16.577335"
       fx="122.50262"
       fy="16.577335"
       r="33.247326"
       gradientTransform="matrix(1.3838578,-0.0445599,0.06022242,1.8702712,-137.27721,24.367259)"
       gradientUnits="userSpaceOnUse" /></defs><path
     id="path3029"
     style="fill:none;fill-opacity:1;stroke-width:1.656;stroke-linecap:round"
     d="M -18.757022,26.949461 H 42.61965 c 1.41639,0 2.55666,0.75949 2.55666,1.702892 V 91.73657 c 0,0.943399 -1.14027,1.702891 -2.55666,1.702891 h -61.376672 c -1.41639,0 -2.55667,-0.759492 -2.55667,-1.702891 V 28.652353 c 0,-0.943402 1.14028,-1.702892 2.55667,-1.702892 z" /><g
     id="g6777"
     transform="translate(-89.2553,33.33533)" /><g
     id="g61377"
     transform="translate(199.61131,501.83567)"><path
       id="rect35673-9"
       style="fill:#b9a478;fill-opacity:1;stroke-width:1.656;stroke-linecap:round"
       d="m -197.05465,-501.83567 h 61.37638 c 1.41638,0 2.55665,1.14027 2.55665,2.55666 v 94.71202 c 0,1.41638 -1.14027,2.55665 -2.55665,2.55665 h -61.37638 c -1.41639,0 -2.55666,-1.14027 -2.55666,-2.55665 v -94.71202 c 0,-1.41639 1.14027,-2.55666 2.55666,-2.55666 z" /></g><path
     id="rect3033-9-18-9-8-2-7"
     d="m 6.0446,35.232502 v 5.872159 h 6.04511 v -5.872158 z m 6.04511,5.872159 v 5.872168 h 6.0451 v -5.872168 z m 6.0451,0 h 6.04511 v -5.872158 h -6.04511 z m 6.04511,0 v 5.872168 h 6.04511 v -5.872168 z m 6.04511,0 h 6.04459 v -5.872158 h -6.04459 z m 6.04459,0 v 5.872168 h 6.04511 v -5.872168 z m 6.04511,0 h 6.04511 v -5.872158 h -6.04511 z m 6.04511,0 v 5.872168 h 6.04511 v -5.872168 z m 6.04511,0 h 6.04459 v -5.872158 h -6.04459 z m 6.04459,0 v 5.872168 h 6.04511 v -5.872168 z m 0,5.872168 h -6.04459 v 5.871672 h 6.04459 z m 0,5.871672 v 5.872158 h 6.04511 v -5.872158 z m 0,5.872158 h -6.04459 v 5.872168 h 6.04459 z m 0,5.872168 v 5.872168 h 6.04511 v -5.872168 z m 0,5.872168 h -6.04459 v 5.872168 h 6.04459 z m 0,5.872168 v 5.871663 h 6.04511 v -5.871663 z m 0,5.871663 h -6.04459 v 5.872168 h 6.04459 z m 0,5.872168 v 5.872168 h 6.04511 v -5.872168 z m 0,5.872168 h -6.04459 v 5.872168 h 6.04459 z m -6.04459,0 v -5.872168 h -6.04511 v 5.872168 z m -6.04511,0 h -6.04511 v 5.872168 h 6.04511 z m -6.04511,0 v -5.872168 h -6.04511 v 5.872168 z m -6.04511,0 h -6.04459 v 5.872168 h 6.04459 z m -6.04459,0 v -5.872168 h -6.04511 v 5.872168 z m -6.04511,0 h -6.04511 v 5.872168 h 6.04511 z m -6.04511,0 v -5.872168 h -6.0451 v 5.872168 z m -6.0451,0 H 6.0446 v 5.872168 h 6.04511 z m -6.04511,0 V 88.080994 H 0 v 5.872168 z m 0,-5.872168 h 6.04511 V 82.208826 H 6.0446 Z m 0,-5.872168 V 76.337163 H 0 v 5.871663 z m 0,-5.871663 h 6.04511 V 70.464995 H 6.0446 Z m 0,-5.872168 V 64.592827 H 0 v 5.872168 z m 0,-5.872168 h 6.04511 V 58.720659 H 6.0446 Z m 0,-5.872168 V 52.848501 H 0 v 5.872158 z m 0,-5.872158 h 6.04511 V 46.976829 H 6.0446 Z m 0,-5.871672 V 41.104661 H 0 v 5.872168 z m 6.04511,5.871672 v 5.872158 h 6.0451 v -5.872158 z m 6.0451,0 h 6.04511 v -5.871672 h -6.04511 z m 6.04511,0 v 5.872158 h 6.04511 v -5.872158 z m 6.04511,0 h 6.04459 v -5.871672 h -6.04459 z m 6.04459,0 v 5.872158 h 6.04511 v -5.872158 z m 6.04511,0 h 6.04511 v -5.871672 h -6.04511 z m 6.04511,0 v 5.872158 h 6.04511 v -5.872158 z m 0,5.872158 h -6.04511 v 5.872168 h 6.04511 z m 0,5.872168 v 5.872168 h 6.04511 v -5.872168 z m 0,5.872168 h -6.04511 v 5.872168 h 6.04511 z m 0,5.872168 v 5.871663 h 6.04511 v -5.871663 z m 0,5.871663 h -6.04511 v 5.872168 h 6.04511 z m -6.04511,0 v -5.871663 h -6.04511 v 5.871663 z m -6.04511,0 h -6.04459 v 5.872168 h 6.04459 z m -6.04459,0 v -5.871663 h -6.04511 v 5.871663 z m -6.04511,0 h -6.04511 v 5.872168 h 6.04511 z m -6.04511,0 v -5.871663 h -6.0451 v 5.871663 z m 0,-5.871663 h 6.04511 v -5.872168 h -6.04511 z m 0,-5.872168 v -5.872168 h -6.0451 v 5.872168 z m 0,-5.872168 h 6.04511 v -5.872168 h -6.04511 z m 6.04511,0 v 5.872168 h 6.04511 v -5.872168 z m 6.04511,0 h 6.04459 v -5.872168 h -6.04459 z m 6.04459,0 v 5.872168 h 6.04511 v -5.872168 z m 0,5.872168 h -6.04459 v 5.872168 h 6.04459 z M 6.0446,0 v 5.872158 h 6.04511 V 1e-6 Z m 6.04511,5.872158 v 5.872168 h 6.0451 V 5.872158 Z m 6.0451,0 h 6.04511 V 1e-6 h -6.04511 z m 6.04511,0 v 5.872168 h 6.04511 V 5.872158 Z m 6.04511,0 h 6.04459 V 1e-6 h -6.04459 z m 6.04459,0 v 5.872168 h 6.04511 V 5.872158 Z m 6.04511,0 h 6.04511 V 1e-6 h -6.04511 z m 6.04511,0 v 5.872168 h 6.04511 V 5.872158 Z m 6.04511,0 h 6.04459 V 1e-6 h -6.04459 z m 6.04459,0 v 5.872168 h 6.04511 V 5.872158 Z m 0,5.872168 h -6.04459 v 5.871673 h 6.04459 z m 0,5.871673 v 5.872158 h 6.04511 v -5.872158 z m 0,5.872158 h -6.04459 v 5.872168 h 6.04459 z m 0,5.872168 v 5.872168 h 6.04511 v -5.872168 z m 0,5.872168 h -6.04459 v 5.872168 h 6.04459 z m 0,5.872168 v 5.871663 h 6.04511 v -5.871663 z m 0,5.871663 h -6.04459 v 5.872167 h 6.04459 z m 0,5.872167 v 5.872168 h 6.04511 v -5.872168 z m 0,5.872168 h -6.04459 v 5.872168 h 6.04459 z m -6.04459,0 v -5.872168 h -6.04511 v 5.872168 z m -6.04511,0 h -6.04511 v 5.872168 h 6.04511 z m -6.04511,0 v -5.872168 h -6.04511 v 5.872168 z m -6.04511,0 h -6.04459 v 5.872168 h 6.04459 z m -6.04459,0 v -5.872168 h -6.04511 v 5.872168 z m -6.04511,0 h -6.04511 v 5.872168 h 6.04511 z m -6.04511,0 v -5.872168 h -6.0451 v 5.872168 z m -6.0451,0 H 6.0446 v 5.872168 h 6.04511 z m -6.04511,0 V 52.848491 H 0 v 5.872168 z m 0,-5.872168 h 6.04511 V 46.976324 H 6.0446 Z m 0,-5.872167 V 41.104661 H 0 v 5.871663 z m 0,-5.871663 h 6.04511 V 35.232493 H 6.0446 Z m 0,-5.872168 V 29.360325 H 0 v 5.872168 z m 0,-5.872168 h 6.04511 V 23.488157 H 6.0446 Z m 0,-5.872168 V 17.615999 H 0 v 5.872158 z m 0,-5.872158 h 6.04511 V 11.744326 H 6.0446 Z m 0,-5.871673 V 5.872158 H 0 v 5.872168 z m 6.04511,5.871673 v 5.872158 h 6.0451 v -5.872158 z m 6.0451,0 h 6.04511 v -5.871673 h -6.04511 z m 6.04511,0 v 5.872158 h 6.04511 v -5.872158 z m 6.04511,0 h 6.04459 v -5.871673 h -6.04459 z m 6.04459,0 v 5.872158 h 6.04511 v -5.872158 z m 6.04511,0 h 6.04511 v -5.871673 h -6.04511 z m 6.04511,0 v 5.872158 h 6.04511 v -5.872158 z m 0,5.872158 h -6.04511 v 5.872168 h 6.04511 z m 0,5.872168 v 5.872168 h 6.04511 v -5.872168 z m 0,5.872168 h -6.04511 v 5.872168 h 6.04511 z m 0,5.872168 v 5.871663 h 6.04511 v -5.871663 z m 0,5.871663 h -6.04511 v 5.872167 h 6.04511 z m -6.04511,0 v -5.871663 h -6.04511 v 5.871663 z m -6.04511,0 h -6.04459 v 5.872167 h 6.04459 z m -6.04459,0 v -5.871663 h -6.04511 v 5.871663 z m -6.04511,0 h -6.04511 v 5.872167 h 6.04511 z m -6.04511,0 v -5.871663 h -6.0451 v 5.871663 z m 0,-5.871663 h 6.04511 v -5.872168 h -6.04511 z m 0,-5.872168 v -5.872168 h -6.0451 v 5.872168 z m 0,-5.872168 h 6.04511 v -5.872168 h -6.04511 z m 6.04511,0 v 5.872168 h 6.04511 v -5.872168 z m 6.04511,0 h 6.04459 v -5.872168 h -6.04459 z m 6.04459,0 v 5.872168 h 6.04511 v -5.872168 z m 0,5.872168 h -6.04459 v 5.872168 h 6.04459 z"
     style="fill:url(#radialGradient5311);fill-opacity:1;stroke-width:1" /></svg>
